G75*
%MOIN*%
%OFA0B0*%
%FSLAX25Y25*%
%IPPOS*%
%LPD*%
%AMOC8*
5,1,8,0,0,1.08239X$1,22.5*
%
%ADD10OC8,0.05937*%
%ADD11C,0.03500*%
%ADD12C,0.02500*%
%ADD13C,0.04000*%
D10*
X0061959Y0037000D03*
X0061959Y0047000D03*
X0061959Y0057000D03*
X0061959Y0067000D03*
X0061959Y0077000D03*
X0061959Y0087000D03*
X0061959Y0097000D03*
X0061959Y0107000D03*
X0061959Y0117000D03*
X0061959Y0127000D03*
X0061959Y0137000D03*
X0061959Y0147000D03*
X0061959Y0157000D03*
X0061959Y0167000D03*
X0061959Y0177000D03*
X0061959Y0187000D03*
X0061959Y0197000D03*
X0061959Y0207000D03*
X0061959Y0217000D03*
X0061959Y0227000D03*
X0061959Y0237000D03*
X0061959Y0247000D03*
X0061959Y0257000D03*
X0061959Y0267000D03*
X0061959Y0277000D03*
X0081959Y0277000D03*
X0081959Y0267000D03*
X0081959Y0257000D03*
X0081959Y0247000D03*
X0081959Y0237000D03*
X0081959Y0227000D03*
X0081959Y0217000D03*
X0081959Y0207000D03*
X0081959Y0197000D03*
X0081959Y0187000D03*
X0081959Y0177000D03*
X0081959Y0167000D03*
X0081959Y0157000D03*
X0081959Y0147000D03*
X0081959Y0137000D03*
X0081959Y0127000D03*
X0081959Y0117000D03*
X0081959Y0107000D03*
X0081959Y0097000D03*
X0081959Y0087000D03*
X0081959Y0077000D03*
X0081959Y0067000D03*
X0081959Y0057000D03*
X0081959Y0047000D03*
X0081959Y0037000D03*
X0152459Y0037000D03*
X0152459Y0047000D03*
X0152459Y0057000D03*
X0152459Y0067000D03*
X0152459Y0077000D03*
X0152459Y0087000D03*
X0152459Y0097000D03*
X0152459Y0107000D03*
X0152459Y0117000D03*
X0152459Y0127000D03*
X0152459Y0137000D03*
X0152459Y0147000D03*
X0152459Y0157000D03*
X0152459Y0167000D03*
X0152459Y0177000D03*
X0152459Y0187000D03*
X0152459Y0197000D03*
X0152459Y0207000D03*
X0152459Y0217000D03*
X0152459Y0227000D03*
X0152459Y0237000D03*
X0152459Y0247000D03*
X0152459Y0257000D03*
X0152459Y0267000D03*
X0152459Y0277000D03*
X0172459Y0277000D03*
X0172459Y0267000D03*
X0172459Y0257000D03*
X0172459Y0247000D03*
X0172459Y0237000D03*
X0172459Y0227000D03*
X0172459Y0217000D03*
X0172459Y0207000D03*
X0172459Y0197000D03*
X0172459Y0187000D03*
X0172459Y0177000D03*
X0172459Y0167000D03*
X0172459Y0157000D03*
X0172459Y0147000D03*
X0172459Y0137000D03*
X0172459Y0127000D03*
X0172459Y0117000D03*
X0172459Y0107000D03*
X0172459Y0097000D03*
X0172459Y0087000D03*
X0172459Y0077000D03*
X0172459Y0067000D03*
X0172459Y0057000D03*
X0172459Y0047000D03*
X0172459Y0037000D03*
D11*
X0152459Y0037000D02*
X0152459Y0032500D01*
X0147459Y0027500D01*
X0087459Y0027500D01*
X0081959Y0033000D01*
X0081959Y0037000D01*
X0081959Y0047000D02*
X0086459Y0051500D01*
X0146459Y0051500D01*
X0150959Y0047000D01*
X0152459Y0047000D01*
D12*
X0152459Y0057000D02*
X0081959Y0057000D01*
X0081959Y0067000D02*
X0152459Y0067000D01*
X0152459Y0077000D02*
X0081959Y0077000D01*
X0081959Y0087000D02*
X0152459Y0087000D01*
X0152459Y0097000D02*
X0081959Y0097000D01*
X0081959Y0107000D02*
X0152459Y0107000D01*
X0152459Y0117000D02*
X0081959Y0117000D01*
X0081959Y0127000D02*
X0152459Y0127000D01*
X0152459Y0137000D02*
X0081959Y0137000D01*
X0081959Y0147000D02*
X0152459Y0147000D01*
X0152459Y0157000D02*
X0081959Y0157000D01*
X0081959Y0167000D02*
X0152459Y0167000D01*
X0152459Y0177000D02*
X0081959Y0177000D01*
X0081959Y0187000D02*
X0152459Y0187000D01*
X0152459Y0197000D02*
X0081959Y0197000D01*
X0081959Y0207000D02*
X0152459Y0207000D01*
X0152459Y0217000D02*
X0081959Y0217000D01*
X0081959Y0227000D02*
X0152459Y0227000D01*
X0152459Y0237000D02*
X0081959Y0237000D01*
X0081959Y0247000D02*
X0152459Y0247000D01*
X0152459Y0257000D02*
X0081959Y0257000D01*
X0086959Y0262000D02*
X0081959Y0267000D01*
X0086959Y0262000D02*
X0148459Y0262000D01*
X0152459Y0266000D01*
X0152459Y0267000D01*
X0152459Y0277000D02*
X0142459Y0287000D01*
X0091959Y0287000D01*
X0081959Y0277000D01*
D13*
X0061959Y0077000D02*
X0061959Y0067000D01*
X0063459Y0067000D01*
X0072459Y0058000D01*
X0072459Y0025500D01*
X0080459Y0017500D01*
X0153459Y0017500D01*
X0162459Y0026500D01*
X0162459Y0057500D01*
X0171959Y0067000D01*
X0172459Y0067000D01*
X0172459Y0077000D01*
M02*
