G75*
%MOIN*%
%OFA0B0*%
%FSLAX25Y25*%
%IPPOS*%
%LPD*%
%AMOC8*
5,1,8,0,0,1.08239X$1,22.5*
%
%ADD10OC8,0.05937*%
%ADD11C,0.04000*%
%ADD12C,0.02500*%
D10*
X0061959Y0037000D03*
X0061959Y0047000D03*
X0061959Y0057000D03*
X0061959Y0067000D03*
X0061959Y0077000D03*
X0061959Y0087000D03*
X0061959Y0097000D03*
X0061959Y0107000D03*
X0061959Y0117000D03*
X0061959Y0127000D03*
X0061959Y0137000D03*
X0061959Y0147000D03*
X0061959Y0157000D03*
X0061959Y0167000D03*
X0061959Y0177000D03*
X0061959Y0187000D03*
X0061959Y0197000D03*
X0061959Y0207000D03*
X0061959Y0217000D03*
X0061959Y0227000D03*
X0061959Y0237000D03*
X0061959Y0247000D03*
X0061959Y0257000D03*
X0061959Y0267000D03*
X0061959Y0277000D03*
X0081959Y0277000D03*
X0081959Y0267000D03*
X0081959Y0257000D03*
X0081959Y0247000D03*
X0081959Y0237000D03*
X0081959Y0227000D03*
X0081959Y0217000D03*
X0081959Y0207000D03*
X0081959Y0197000D03*
X0081959Y0187000D03*
X0081959Y0177000D03*
X0081959Y0167000D03*
X0081959Y0157000D03*
X0081959Y0147000D03*
X0081959Y0137000D03*
X0081959Y0127000D03*
X0081959Y0117000D03*
X0081959Y0107000D03*
X0081959Y0097000D03*
X0081959Y0087000D03*
X0081959Y0077000D03*
X0081959Y0067000D03*
X0081959Y0057000D03*
X0081959Y0047000D03*
X0081959Y0037000D03*
X0152459Y0037000D03*
X0152459Y0047000D03*
X0152459Y0057000D03*
X0152459Y0067000D03*
X0152459Y0077000D03*
X0152459Y0087000D03*
X0152459Y0097000D03*
X0152459Y0107000D03*
X0152459Y0117000D03*
X0152459Y0127000D03*
X0152459Y0137000D03*
X0152459Y0147000D03*
X0152459Y0157000D03*
X0152459Y0167000D03*
X0152459Y0177000D03*
X0152459Y0187000D03*
X0152459Y0197000D03*
X0152459Y0207000D03*
X0152459Y0217000D03*
X0152459Y0227000D03*
X0152459Y0237000D03*
X0152459Y0247000D03*
X0152459Y0257000D03*
X0152459Y0267000D03*
X0152459Y0277000D03*
X0172459Y0277000D03*
X0172459Y0267000D03*
X0172459Y0257000D03*
X0172459Y0247000D03*
X0172459Y0237000D03*
X0172459Y0227000D03*
X0172459Y0217000D03*
X0172459Y0207000D03*
X0172459Y0197000D03*
X0172459Y0187000D03*
X0172459Y0177000D03*
X0172459Y0167000D03*
X0172459Y0157000D03*
X0172459Y0147000D03*
X0172459Y0137000D03*
X0172459Y0127000D03*
X0172459Y0117000D03*
X0172459Y0107000D03*
X0172459Y0097000D03*
X0172459Y0087000D03*
X0172459Y0077000D03*
X0172459Y0067000D03*
X0172459Y0057000D03*
X0172459Y0047000D03*
X0172459Y0037000D03*
D11*
X0172459Y0046500D02*
X0172459Y0047000D01*
X0172459Y0057000D01*
X0172459Y0046500D02*
X0162459Y0036500D01*
X0162459Y0026500D01*
X0153459Y0017500D01*
X0080459Y0017500D01*
X0072459Y0025500D01*
X0072459Y0036500D01*
X0061959Y0047000D01*
X0061959Y0057000D01*
D12*
X0061959Y0023000D02*
X0075459Y0009500D01*
X0161459Y0009500D01*
X0172459Y0020500D01*
X0172459Y0037000D01*
X0172459Y0087000D02*
X0172459Y0088000D01*
X0168459Y0092000D01*
X0066959Y0092000D01*
X0061959Y0087000D01*
X0061959Y0097000D02*
X0066959Y0102000D01*
X0168459Y0102000D01*
X0172459Y0098000D01*
X0172459Y0097000D01*
X0172459Y0107000D02*
X0172459Y0108000D01*
X0168459Y0112000D01*
X0066959Y0112000D01*
X0061959Y0107000D01*
X0061959Y0117000D02*
X0066959Y0122000D01*
X0168459Y0122000D01*
X0172459Y0118000D01*
X0172459Y0117000D01*
X0172459Y0127000D02*
X0172459Y0128000D01*
X0168459Y0132000D01*
X0066959Y0132000D01*
X0061959Y0127000D01*
X0061959Y0137000D02*
X0066959Y0142000D01*
X0168459Y0142000D01*
X0172459Y0138000D01*
X0172459Y0137000D01*
X0172459Y0147000D02*
X0172459Y0148000D01*
X0168459Y0152000D01*
X0066959Y0152000D01*
X0061959Y0147000D01*
X0061959Y0157000D02*
X0066959Y0162000D01*
X0168459Y0162000D01*
X0172459Y0158000D01*
X0172459Y0157000D01*
X0172459Y0167000D02*
X0172459Y0168000D01*
X0168459Y0172000D01*
X0066959Y0172000D01*
X0061959Y0167000D01*
X0061959Y0177000D02*
X0066959Y0182000D01*
X0168459Y0182000D01*
X0172459Y0178000D01*
X0172459Y0177000D01*
X0172459Y0187000D02*
X0172459Y0188000D01*
X0168459Y0192000D01*
X0066959Y0192000D01*
X0061959Y0187000D01*
X0061959Y0197000D02*
X0066959Y0202000D01*
X0168459Y0202000D01*
X0172459Y0198000D01*
X0172459Y0197000D01*
X0172459Y0207000D02*
X0172459Y0208000D01*
X0168459Y0212000D01*
X0066959Y0212000D01*
X0061959Y0207000D01*
X0061959Y0217000D02*
X0066959Y0222000D01*
X0168459Y0222000D01*
X0172459Y0218000D01*
X0172459Y0217000D01*
X0172459Y0227000D02*
X0172459Y0228000D01*
X0168459Y0232000D01*
X0066959Y0232000D01*
X0061959Y0227000D01*
X0061959Y0237000D02*
X0066959Y0242000D01*
X0168459Y0242000D01*
X0173459Y0237000D01*
X0172459Y0237000D01*
X0172459Y0247000D02*
X0172459Y0248000D01*
X0168459Y0252000D01*
X0066959Y0252000D01*
X0061959Y0247000D01*
X0061959Y0257000D02*
X0066959Y0262000D01*
X0168459Y0262000D01*
X0172459Y0258000D01*
X0172459Y0257000D01*
X0172459Y0267000D02*
X0172459Y0268000D01*
X0153459Y0287000D01*
X0081959Y0287000D01*
X0061959Y0267000D01*
X0061959Y0277000D02*
X0079459Y0294500D01*
X0155959Y0294500D01*
X0172459Y0278000D01*
X0172459Y0277000D01*
X0061959Y0037000D02*
X0061959Y0023000D01*
M02*
