%
M48
M72
T01C0.03937
T02C0.12000
%
T01
X61959Y37000
X61959Y47000
X61959Y57000
X61959Y67000
X61959Y77000
X61959Y87000
X61959Y97000
X61959Y107000
X61959Y117000
X61959Y127000
X61959Y137000
X61959Y147000
X61959Y157000
X61959Y167000
X61959Y177000
X61959Y187000
X61959Y197000
X61959Y207000
X61959Y217000
X61959Y227000
X61959Y237000
X61959Y247000
X61959Y257000
X61959Y267000
X61959Y277000
X81959Y277000
X81959Y267000
X81959Y257000
X81959Y247000
X81959Y237000
X81959Y227000
X81959Y217000
X81959Y207000
X81959Y197000
X81959Y187000
X81959Y177000
X81959Y167000
X81959Y157000
X81959Y147000
X81959Y137000
X81959Y127000
X81959Y117000
X81959Y107000
X81959Y97000
X81959Y87000
X81959Y77000
X81959Y67000
X81959Y57000
X81959Y47000
X81959Y37000
X152459Y37000
X152459Y47000
X152459Y57000
X152459Y67000
X152459Y77000
X152459Y87000
X152459Y97000
X152459Y107000
X152459Y117000
X152459Y127000
X152459Y137000
X152459Y147000
X152459Y157000
X152459Y167000
X152459Y177000
X152459Y187000
X152459Y197000
X152459Y207000
X152459Y217000
X152459Y227000
X152459Y237000
X152459Y247000
X152459Y257000
X152459Y267000
X152459Y277000
X172459Y277000
X172459Y267000
X172459Y257000
X172459Y247000
X172459Y237000
X172459Y227000
X172459Y217000
X172459Y207000
X172459Y197000
X172459Y187000
X172459Y177000
X172459Y167000
X172459Y157000
X172459Y147000
X172459Y137000
X172459Y127000
X172459Y117000
X172459Y107000
X172459Y97000
X172459Y87000
X172459Y77000
X172459Y67000
X172459Y57000
X172459Y47000
X172459Y37000
T02
X115959Y39500
X115959Y274500
M30
