G75*
%MOIN*%
%OFA0B0*%
%FSLAX25Y25*%
%IPPOS*%
%LPD*%
%AMOC8*
5,1,8,0,0,1.08239X$1,22.5*
%
%ADD10C,0.01000*%
%ADD11C,0.00394*%
%ADD12C,0.00900*%
%ADD13C,0.00600*%
%ADD14C,0.00000*%
%ADD15C,0.00400*%
D10*
X0054459Y0001500D02*
X0179959Y0001500D01*
X0179959Y0312500D01*
X0054459Y0312500D01*
X0054459Y0001500D01*
D11*
X0089758Y0008890D02*
X0089758Y0022669D01*
X0144719Y0022669D01*
X0144719Y0008890D01*
X0089758Y0008890D01*
D12*
X0098367Y0298769D02*
X0096547Y0300589D01*
X0098367Y0298769D02*
X0102007Y0298769D01*
X0103827Y0300589D01*
X0103827Y0307869D01*
X0102007Y0309689D01*
X0098367Y0309689D01*
X0096547Y0307869D01*
X0107422Y0307869D02*
X0109243Y0309689D01*
X0112883Y0309689D01*
X0114703Y0307869D01*
X0114703Y0306049D01*
X0112883Y0304229D01*
X0109243Y0304229D01*
X0107422Y0302409D01*
X0107422Y0300589D01*
X0109243Y0298769D01*
X0112883Y0298769D01*
X0114703Y0300589D01*
X0118298Y0300589D02*
X0120118Y0298769D01*
X0125578Y0298769D01*
X0125578Y0309689D01*
X0120118Y0309689D01*
X0118298Y0307869D01*
X0118298Y0306049D01*
X0120118Y0304229D01*
X0125578Y0304229D01*
X0129173Y0304229D02*
X0130993Y0302409D01*
X0136454Y0302409D01*
X0136454Y0298769D02*
X0136454Y0309689D01*
X0130993Y0309689D01*
X0129173Y0307869D01*
X0129173Y0304229D01*
X0132813Y0302409D02*
X0129173Y0298769D01*
X0120118Y0304229D02*
X0118298Y0302409D01*
X0118298Y0300589D01*
D13*
X0117313Y0294088D02*
X0116099Y0292875D01*
X0120953Y0288021D01*
X0119739Y0286808D01*
X0117313Y0286808D01*
X0116099Y0288021D01*
X0116099Y0292875D01*
X0117313Y0294088D02*
X0119739Y0294088D01*
X0120953Y0292875D01*
X0120953Y0288021D01*
X0123350Y0286808D02*
X0128203Y0286808D01*
X0123350Y0291661D01*
X0123350Y0292875D01*
X0124563Y0294088D01*
X0126990Y0294088D01*
X0128203Y0292875D01*
X0113703Y0291661D02*
X0111276Y0294088D01*
X0111276Y0286808D01*
X0113703Y0286808D02*
X0108849Y0286808D01*
X0106452Y0288021D02*
X0105239Y0286808D01*
X0102812Y0286808D01*
X0101599Y0288021D01*
X0101599Y0292875D01*
X0102812Y0294088D01*
X0105239Y0294088D01*
X0106452Y0292875D01*
X0106452Y0291661D01*
X0105239Y0290448D01*
X0101599Y0290448D01*
X0116909Y0250094D02*
X0119377Y0250094D01*
X0121846Y0247625D01*
X0119377Y0245190D02*
X0119377Y0243955D01*
X0116909Y0241487D01*
X0116909Y0239058D02*
X0116909Y0234120D01*
X0118143Y0234120D02*
X0115674Y0234120D01*
X0114440Y0235355D01*
X0114440Y0237824D01*
X0116909Y0239058D02*
X0118143Y0239058D01*
X0119377Y0237824D01*
X0119377Y0235355D01*
X0118143Y0234120D01*
X0119377Y0231678D02*
X0119377Y0229209D01*
X0120612Y0230444D02*
X0115674Y0230444D01*
X0114440Y0231678D01*
X0115674Y0226781D02*
X0114440Y0225546D01*
X0114440Y0221843D01*
X0114440Y0219414D02*
X0114440Y0215711D01*
X0115674Y0214477D01*
X0116909Y0215711D01*
X0116909Y0219414D01*
X0118143Y0219414D02*
X0114440Y0219414D01*
X0111971Y0221843D02*
X0119377Y0221843D01*
X0119377Y0225546D01*
X0118143Y0226781D01*
X0115674Y0226781D01*
X0118143Y0219414D02*
X0119377Y0218180D01*
X0119377Y0215711D01*
X0119377Y0212048D02*
X0119377Y0208345D01*
X0118143Y0207111D01*
X0115674Y0207111D01*
X0114440Y0208345D01*
X0114440Y0212048D01*
X0121846Y0212048D01*
X0119377Y0204682D02*
X0114440Y0204682D01*
X0114440Y0199744D02*
X0119377Y0199744D01*
X0121846Y0202213D01*
X0119377Y0204682D01*
X0118143Y0204682D02*
X0118143Y0199744D01*
X0119377Y0189936D02*
X0119377Y0187467D01*
X0120612Y0188702D02*
X0115674Y0188702D01*
X0114440Y0189936D01*
X0115674Y0185038D02*
X0114440Y0183804D01*
X0114440Y0181335D01*
X0115674Y0180101D01*
X0118143Y0180101D01*
X0119377Y0181335D01*
X0119377Y0183804D01*
X0118143Y0185038D01*
X0115674Y0185038D01*
X0114440Y0177659D02*
X0114440Y0175190D01*
X0114440Y0176424D02*
X0121846Y0176424D01*
X0121846Y0175190D01*
X0120612Y0172761D02*
X0121846Y0171527D01*
X0121846Y0169058D01*
X0120612Y0167824D01*
X0119377Y0167824D01*
X0118143Y0169058D01*
X0118143Y0171527D01*
X0116909Y0172761D01*
X0115674Y0172761D01*
X0114440Y0171527D01*
X0114440Y0169058D01*
X0115674Y0167824D01*
X0114440Y0158022D02*
X0116909Y0154319D01*
X0119377Y0158022D01*
X0121846Y0154319D02*
X0114440Y0154319D01*
X0114440Y0151890D02*
X0114440Y0148187D01*
X0115674Y0146953D01*
X0118143Y0146953D01*
X0119377Y0148187D01*
X0119377Y0151890D01*
X0118143Y0144524D02*
X0114440Y0144524D01*
X0114440Y0140821D01*
X0115674Y0139586D01*
X0116909Y0140821D01*
X0116909Y0144524D01*
X0118143Y0144524D02*
X0119377Y0143289D01*
X0119377Y0140821D01*
X0119377Y0137158D02*
X0118143Y0135923D01*
X0118143Y0132220D01*
X0121846Y0132220D02*
X0121846Y0135923D01*
X0120612Y0137158D01*
X0119377Y0137158D01*
X0118143Y0135923D02*
X0116909Y0137158D01*
X0115674Y0137158D01*
X0114440Y0135923D01*
X0114440Y0132220D01*
X0121846Y0132220D01*
X0121846Y0129778D02*
X0119377Y0127309D01*
X0116909Y0127309D01*
X0114440Y0129778D01*
X0114440Y0117514D02*
X0119377Y0117514D01*
X0121846Y0115045D01*
X0119377Y0112577D01*
X0114440Y0112577D01*
X0115674Y0110148D02*
X0114440Y0108913D01*
X0114440Y0106445D01*
X0115674Y0105210D01*
X0115674Y0102782D02*
X0114440Y0101547D01*
X0114440Y0097844D01*
X0121846Y0097844D01*
X0121846Y0101547D01*
X0120612Y0102782D01*
X0119377Y0102782D01*
X0118143Y0101547D01*
X0118143Y0097844D01*
X0118143Y0101547D02*
X0116909Y0102782D01*
X0115674Y0102782D01*
X0118143Y0106445D02*
X0118143Y0108913D01*
X0116909Y0110148D01*
X0115674Y0110148D01*
X0118143Y0112577D02*
X0118143Y0117514D01*
X0120612Y0110148D02*
X0121846Y0108913D01*
X0121846Y0106445D01*
X0120612Y0105210D01*
X0119377Y0105210D01*
X0118143Y0106445D01*
X0121846Y0088049D02*
X0114440Y0083111D01*
X0115674Y0080683D02*
X0114440Y0079448D01*
X0114440Y0076980D01*
X0115674Y0075745D01*
X0114440Y0073316D02*
X0121846Y0073316D01*
X0119377Y0070848D01*
X0121846Y0068379D01*
X0114440Y0068379D01*
X0119377Y0075745D02*
X0118143Y0076980D01*
X0118143Y0079448D01*
X0116909Y0080683D01*
X0115674Y0080683D01*
X0119377Y0075745D02*
X0120612Y0075745D01*
X0121846Y0076980D01*
X0121846Y0079448D01*
X0120612Y0080683D01*
X0121846Y0083111D02*
X0114440Y0088049D01*
X0114440Y0241487D02*
X0119377Y0241487D01*
X0114440Y0247625D02*
X0116909Y0250094D01*
D14*
X0109959Y0274500D02*
X0109961Y0274654D01*
X0109967Y0274809D01*
X0109977Y0274963D01*
X0109991Y0275117D01*
X0110009Y0275270D01*
X0110030Y0275423D01*
X0110056Y0275576D01*
X0110086Y0275727D01*
X0110119Y0275878D01*
X0110157Y0276028D01*
X0110198Y0276177D01*
X0110243Y0276325D01*
X0110292Y0276471D01*
X0110345Y0276617D01*
X0110401Y0276760D01*
X0110461Y0276903D01*
X0110525Y0277043D01*
X0110592Y0277183D01*
X0110663Y0277320D01*
X0110737Y0277455D01*
X0110815Y0277589D01*
X0110896Y0277720D01*
X0110981Y0277849D01*
X0111069Y0277977D01*
X0111160Y0278101D01*
X0111254Y0278224D01*
X0111352Y0278344D01*
X0111452Y0278461D01*
X0111556Y0278576D01*
X0111662Y0278688D01*
X0111771Y0278797D01*
X0111883Y0278903D01*
X0111998Y0279007D01*
X0112115Y0279107D01*
X0112235Y0279205D01*
X0112358Y0279299D01*
X0112482Y0279390D01*
X0112610Y0279478D01*
X0112739Y0279563D01*
X0112870Y0279644D01*
X0113004Y0279722D01*
X0113139Y0279796D01*
X0113276Y0279867D01*
X0113416Y0279934D01*
X0113556Y0279998D01*
X0113699Y0280058D01*
X0113842Y0280114D01*
X0113988Y0280167D01*
X0114134Y0280216D01*
X0114282Y0280261D01*
X0114431Y0280302D01*
X0114581Y0280340D01*
X0114732Y0280373D01*
X0114883Y0280403D01*
X0115036Y0280429D01*
X0115189Y0280450D01*
X0115342Y0280468D01*
X0115496Y0280482D01*
X0115650Y0280492D01*
X0115805Y0280498D01*
X0115959Y0280500D01*
X0116113Y0280498D01*
X0116268Y0280492D01*
X0116422Y0280482D01*
X0116576Y0280468D01*
X0116729Y0280450D01*
X0116882Y0280429D01*
X0117035Y0280403D01*
X0117186Y0280373D01*
X0117337Y0280340D01*
X0117487Y0280302D01*
X0117636Y0280261D01*
X0117784Y0280216D01*
X0117930Y0280167D01*
X0118076Y0280114D01*
X0118219Y0280058D01*
X0118362Y0279998D01*
X0118502Y0279934D01*
X0118642Y0279867D01*
X0118779Y0279796D01*
X0118914Y0279722D01*
X0119048Y0279644D01*
X0119179Y0279563D01*
X0119308Y0279478D01*
X0119436Y0279390D01*
X0119560Y0279299D01*
X0119683Y0279205D01*
X0119803Y0279107D01*
X0119920Y0279007D01*
X0120035Y0278903D01*
X0120147Y0278797D01*
X0120256Y0278688D01*
X0120362Y0278576D01*
X0120466Y0278461D01*
X0120566Y0278344D01*
X0120664Y0278224D01*
X0120758Y0278101D01*
X0120849Y0277977D01*
X0120937Y0277849D01*
X0121022Y0277720D01*
X0121103Y0277589D01*
X0121181Y0277455D01*
X0121255Y0277320D01*
X0121326Y0277183D01*
X0121393Y0277043D01*
X0121457Y0276903D01*
X0121517Y0276760D01*
X0121573Y0276617D01*
X0121626Y0276471D01*
X0121675Y0276325D01*
X0121720Y0276177D01*
X0121761Y0276028D01*
X0121799Y0275878D01*
X0121832Y0275727D01*
X0121862Y0275576D01*
X0121888Y0275423D01*
X0121909Y0275270D01*
X0121927Y0275117D01*
X0121941Y0274963D01*
X0121951Y0274809D01*
X0121957Y0274654D01*
X0121959Y0274500D01*
X0121957Y0274346D01*
X0121951Y0274191D01*
X0121941Y0274037D01*
X0121927Y0273883D01*
X0121909Y0273730D01*
X0121888Y0273577D01*
X0121862Y0273424D01*
X0121832Y0273273D01*
X0121799Y0273122D01*
X0121761Y0272972D01*
X0121720Y0272823D01*
X0121675Y0272675D01*
X0121626Y0272529D01*
X0121573Y0272383D01*
X0121517Y0272240D01*
X0121457Y0272097D01*
X0121393Y0271957D01*
X0121326Y0271817D01*
X0121255Y0271680D01*
X0121181Y0271545D01*
X0121103Y0271411D01*
X0121022Y0271280D01*
X0120937Y0271151D01*
X0120849Y0271023D01*
X0120758Y0270899D01*
X0120664Y0270776D01*
X0120566Y0270656D01*
X0120466Y0270539D01*
X0120362Y0270424D01*
X0120256Y0270312D01*
X0120147Y0270203D01*
X0120035Y0270097D01*
X0119920Y0269993D01*
X0119803Y0269893D01*
X0119683Y0269795D01*
X0119560Y0269701D01*
X0119436Y0269610D01*
X0119308Y0269522D01*
X0119179Y0269437D01*
X0119048Y0269356D01*
X0118914Y0269278D01*
X0118779Y0269204D01*
X0118642Y0269133D01*
X0118502Y0269066D01*
X0118362Y0269002D01*
X0118219Y0268942D01*
X0118076Y0268886D01*
X0117930Y0268833D01*
X0117784Y0268784D01*
X0117636Y0268739D01*
X0117487Y0268698D01*
X0117337Y0268660D01*
X0117186Y0268627D01*
X0117035Y0268597D01*
X0116882Y0268571D01*
X0116729Y0268550D01*
X0116576Y0268532D01*
X0116422Y0268518D01*
X0116268Y0268508D01*
X0116113Y0268502D01*
X0115959Y0268500D01*
X0115805Y0268502D01*
X0115650Y0268508D01*
X0115496Y0268518D01*
X0115342Y0268532D01*
X0115189Y0268550D01*
X0115036Y0268571D01*
X0114883Y0268597D01*
X0114732Y0268627D01*
X0114581Y0268660D01*
X0114431Y0268698D01*
X0114282Y0268739D01*
X0114134Y0268784D01*
X0113988Y0268833D01*
X0113842Y0268886D01*
X0113699Y0268942D01*
X0113556Y0269002D01*
X0113416Y0269066D01*
X0113276Y0269133D01*
X0113139Y0269204D01*
X0113004Y0269278D01*
X0112870Y0269356D01*
X0112739Y0269437D01*
X0112610Y0269522D01*
X0112482Y0269610D01*
X0112358Y0269701D01*
X0112235Y0269795D01*
X0112115Y0269893D01*
X0111998Y0269993D01*
X0111883Y0270097D01*
X0111771Y0270203D01*
X0111662Y0270312D01*
X0111556Y0270424D01*
X0111452Y0270539D01*
X0111352Y0270656D01*
X0111254Y0270776D01*
X0111160Y0270899D01*
X0111069Y0271023D01*
X0110981Y0271151D01*
X0110896Y0271280D01*
X0110815Y0271411D01*
X0110737Y0271545D01*
X0110663Y0271680D01*
X0110592Y0271817D01*
X0110525Y0271957D01*
X0110461Y0272097D01*
X0110401Y0272240D01*
X0110345Y0272383D01*
X0110292Y0272529D01*
X0110243Y0272675D01*
X0110198Y0272823D01*
X0110157Y0272972D01*
X0110119Y0273122D01*
X0110086Y0273273D01*
X0110056Y0273424D01*
X0110030Y0273577D01*
X0110009Y0273730D01*
X0109991Y0273883D01*
X0109977Y0274037D01*
X0109967Y0274191D01*
X0109961Y0274346D01*
X0109959Y0274500D01*
X0109959Y0039500D02*
X0109961Y0039654D01*
X0109967Y0039809D01*
X0109977Y0039963D01*
X0109991Y0040117D01*
X0110009Y0040270D01*
X0110030Y0040423D01*
X0110056Y0040576D01*
X0110086Y0040727D01*
X0110119Y0040878D01*
X0110157Y0041028D01*
X0110198Y0041177D01*
X0110243Y0041325D01*
X0110292Y0041471D01*
X0110345Y0041617D01*
X0110401Y0041760D01*
X0110461Y0041903D01*
X0110525Y0042043D01*
X0110592Y0042183D01*
X0110663Y0042320D01*
X0110737Y0042455D01*
X0110815Y0042589D01*
X0110896Y0042720D01*
X0110981Y0042849D01*
X0111069Y0042977D01*
X0111160Y0043101D01*
X0111254Y0043224D01*
X0111352Y0043344D01*
X0111452Y0043461D01*
X0111556Y0043576D01*
X0111662Y0043688D01*
X0111771Y0043797D01*
X0111883Y0043903D01*
X0111998Y0044007D01*
X0112115Y0044107D01*
X0112235Y0044205D01*
X0112358Y0044299D01*
X0112482Y0044390D01*
X0112610Y0044478D01*
X0112739Y0044563D01*
X0112870Y0044644D01*
X0113004Y0044722D01*
X0113139Y0044796D01*
X0113276Y0044867D01*
X0113416Y0044934D01*
X0113556Y0044998D01*
X0113699Y0045058D01*
X0113842Y0045114D01*
X0113988Y0045167D01*
X0114134Y0045216D01*
X0114282Y0045261D01*
X0114431Y0045302D01*
X0114581Y0045340D01*
X0114732Y0045373D01*
X0114883Y0045403D01*
X0115036Y0045429D01*
X0115189Y0045450D01*
X0115342Y0045468D01*
X0115496Y0045482D01*
X0115650Y0045492D01*
X0115805Y0045498D01*
X0115959Y0045500D01*
X0116113Y0045498D01*
X0116268Y0045492D01*
X0116422Y0045482D01*
X0116576Y0045468D01*
X0116729Y0045450D01*
X0116882Y0045429D01*
X0117035Y0045403D01*
X0117186Y0045373D01*
X0117337Y0045340D01*
X0117487Y0045302D01*
X0117636Y0045261D01*
X0117784Y0045216D01*
X0117930Y0045167D01*
X0118076Y0045114D01*
X0118219Y0045058D01*
X0118362Y0044998D01*
X0118502Y0044934D01*
X0118642Y0044867D01*
X0118779Y0044796D01*
X0118914Y0044722D01*
X0119048Y0044644D01*
X0119179Y0044563D01*
X0119308Y0044478D01*
X0119436Y0044390D01*
X0119560Y0044299D01*
X0119683Y0044205D01*
X0119803Y0044107D01*
X0119920Y0044007D01*
X0120035Y0043903D01*
X0120147Y0043797D01*
X0120256Y0043688D01*
X0120362Y0043576D01*
X0120466Y0043461D01*
X0120566Y0043344D01*
X0120664Y0043224D01*
X0120758Y0043101D01*
X0120849Y0042977D01*
X0120937Y0042849D01*
X0121022Y0042720D01*
X0121103Y0042589D01*
X0121181Y0042455D01*
X0121255Y0042320D01*
X0121326Y0042183D01*
X0121393Y0042043D01*
X0121457Y0041903D01*
X0121517Y0041760D01*
X0121573Y0041617D01*
X0121626Y0041471D01*
X0121675Y0041325D01*
X0121720Y0041177D01*
X0121761Y0041028D01*
X0121799Y0040878D01*
X0121832Y0040727D01*
X0121862Y0040576D01*
X0121888Y0040423D01*
X0121909Y0040270D01*
X0121927Y0040117D01*
X0121941Y0039963D01*
X0121951Y0039809D01*
X0121957Y0039654D01*
X0121959Y0039500D01*
X0121957Y0039346D01*
X0121951Y0039191D01*
X0121941Y0039037D01*
X0121927Y0038883D01*
X0121909Y0038730D01*
X0121888Y0038577D01*
X0121862Y0038424D01*
X0121832Y0038273D01*
X0121799Y0038122D01*
X0121761Y0037972D01*
X0121720Y0037823D01*
X0121675Y0037675D01*
X0121626Y0037529D01*
X0121573Y0037383D01*
X0121517Y0037240D01*
X0121457Y0037097D01*
X0121393Y0036957D01*
X0121326Y0036817D01*
X0121255Y0036680D01*
X0121181Y0036545D01*
X0121103Y0036411D01*
X0121022Y0036280D01*
X0120937Y0036151D01*
X0120849Y0036023D01*
X0120758Y0035899D01*
X0120664Y0035776D01*
X0120566Y0035656D01*
X0120466Y0035539D01*
X0120362Y0035424D01*
X0120256Y0035312D01*
X0120147Y0035203D01*
X0120035Y0035097D01*
X0119920Y0034993D01*
X0119803Y0034893D01*
X0119683Y0034795D01*
X0119560Y0034701D01*
X0119436Y0034610D01*
X0119308Y0034522D01*
X0119179Y0034437D01*
X0119048Y0034356D01*
X0118914Y0034278D01*
X0118779Y0034204D01*
X0118642Y0034133D01*
X0118502Y0034066D01*
X0118362Y0034002D01*
X0118219Y0033942D01*
X0118076Y0033886D01*
X0117930Y0033833D01*
X0117784Y0033784D01*
X0117636Y0033739D01*
X0117487Y0033698D01*
X0117337Y0033660D01*
X0117186Y0033627D01*
X0117035Y0033597D01*
X0116882Y0033571D01*
X0116729Y0033550D01*
X0116576Y0033532D01*
X0116422Y0033518D01*
X0116268Y0033508D01*
X0116113Y0033502D01*
X0115959Y0033500D01*
X0115805Y0033502D01*
X0115650Y0033508D01*
X0115496Y0033518D01*
X0115342Y0033532D01*
X0115189Y0033550D01*
X0115036Y0033571D01*
X0114883Y0033597D01*
X0114732Y0033627D01*
X0114581Y0033660D01*
X0114431Y0033698D01*
X0114282Y0033739D01*
X0114134Y0033784D01*
X0113988Y0033833D01*
X0113842Y0033886D01*
X0113699Y0033942D01*
X0113556Y0034002D01*
X0113416Y0034066D01*
X0113276Y0034133D01*
X0113139Y0034204D01*
X0113004Y0034278D01*
X0112870Y0034356D01*
X0112739Y0034437D01*
X0112610Y0034522D01*
X0112482Y0034610D01*
X0112358Y0034701D01*
X0112235Y0034795D01*
X0112115Y0034893D01*
X0111998Y0034993D01*
X0111883Y0035097D01*
X0111771Y0035203D01*
X0111662Y0035312D01*
X0111556Y0035424D01*
X0111452Y0035539D01*
X0111352Y0035656D01*
X0111254Y0035776D01*
X0111160Y0035899D01*
X0111069Y0036023D01*
X0110981Y0036151D01*
X0110896Y0036280D01*
X0110815Y0036411D01*
X0110737Y0036545D01*
X0110663Y0036680D01*
X0110592Y0036817D01*
X0110525Y0036957D01*
X0110461Y0037097D01*
X0110401Y0037240D01*
X0110345Y0037383D01*
X0110292Y0037529D01*
X0110243Y0037675D01*
X0110198Y0037823D01*
X0110157Y0037972D01*
X0110119Y0038122D01*
X0110086Y0038273D01*
X0110056Y0038424D01*
X0110030Y0038577D01*
X0110009Y0038730D01*
X0109991Y0038883D01*
X0109977Y0039037D01*
X0109967Y0039191D01*
X0109961Y0039346D01*
X0109959Y0039500D01*
D15*
X0102431Y0017631D02*
X0102431Y0013027D01*
X0103965Y0013027D02*
X0100896Y0013027D01*
X0099362Y0013027D02*
X0098594Y0013027D01*
X0098594Y0013794D01*
X0099362Y0013794D01*
X0099362Y0013027D01*
X0097060Y0013794D02*
X0097060Y0016863D01*
X0096292Y0017631D01*
X0094758Y0017631D01*
X0093990Y0016863D01*
X0097060Y0013794D01*
X0096292Y0013027D01*
X0094758Y0013027D01*
X0093990Y0013794D01*
X0093990Y0016863D01*
X0102431Y0017631D02*
X0103965Y0016096D01*
X0110104Y0015329D02*
X0110104Y0013027D01*
X0110104Y0015329D02*
X0110871Y0016096D01*
X0113173Y0016096D01*
X0113173Y0013027D01*
X0114708Y0013794D02*
X0114708Y0015329D01*
X0115475Y0016096D01*
X0117010Y0016096D01*
X0117777Y0015329D01*
X0117777Y0013794D01*
X0117010Y0013027D01*
X0115475Y0013027D01*
X0114708Y0013794D01*
X0119312Y0013027D02*
X0120847Y0013027D01*
X0120079Y0013027D02*
X0120079Y0016096D01*
X0120847Y0016096D01*
X0122381Y0016096D02*
X0124683Y0016096D01*
X0125450Y0015329D01*
X0124683Y0014561D01*
X0123148Y0014561D01*
X0122381Y0013794D01*
X0123148Y0013027D01*
X0125450Y0013027D01*
X0126985Y0016096D02*
X0127752Y0016096D01*
X0129287Y0014561D01*
X0129287Y0013027D02*
X0129287Y0016096D01*
X0130822Y0015329D02*
X0130822Y0014561D01*
X0133891Y0014561D01*
X0133891Y0013794D02*
X0133891Y0015329D01*
X0133124Y0016096D01*
X0131589Y0016096D01*
X0130822Y0015329D01*
X0131589Y0013027D02*
X0133124Y0013027D01*
X0133891Y0013794D01*
X0135426Y0014561D02*
X0135426Y0017631D01*
X0135426Y0014561D02*
X0136960Y0013027D01*
X0138495Y0014561D01*
X0138495Y0017631D01*
X0120079Y0017631D02*
X0120079Y0018398D01*
M02*
