G75*
%MOIN*%
%OFA0B0*%
%FSLAX25Y25*%
%IPPOS*%
%LPD*%
%AMOC8*
5,1,8,0,0,1.08239X$1,22.5*
%
%ADD10C,0.12800*%
%ADD11OC8,0.06737*%
D10*
X0115959Y0039500D03*
X0115959Y0274500D03*
D11*
X0061959Y0037000D03*
X0061959Y0047000D03*
X0061959Y0057000D03*
X0061959Y0067000D03*
X0061959Y0077000D03*
X0061959Y0087000D03*
X0061959Y0097000D03*
X0061959Y0107000D03*
X0061959Y0117000D03*
X0061959Y0127000D03*
X0061959Y0137000D03*
X0061959Y0147000D03*
X0061959Y0157000D03*
X0061959Y0167000D03*
X0061959Y0177000D03*
X0061959Y0187000D03*
X0061959Y0197000D03*
X0061959Y0207000D03*
X0061959Y0217000D03*
X0061959Y0227000D03*
X0061959Y0237000D03*
X0061959Y0247000D03*
X0061959Y0257000D03*
X0061959Y0267000D03*
X0061959Y0277000D03*
X0081959Y0277000D03*
X0081959Y0267000D03*
X0081959Y0257000D03*
X0081959Y0247000D03*
X0081959Y0237000D03*
X0081959Y0227000D03*
X0081959Y0217000D03*
X0081959Y0207000D03*
X0081959Y0197000D03*
X0081959Y0187000D03*
X0081959Y0177000D03*
X0081959Y0167000D03*
X0081959Y0157000D03*
X0081959Y0147000D03*
X0081959Y0137000D03*
X0081959Y0127000D03*
X0081959Y0117000D03*
X0081959Y0107000D03*
X0081959Y0097000D03*
X0081959Y0087000D03*
X0081959Y0077000D03*
X0081959Y0067000D03*
X0081959Y0057000D03*
X0081959Y0047000D03*
X0081959Y0037000D03*
X0152459Y0037000D03*
X0152459Y0047000D03*
X0152459Y0057000D03*
X0152459Y0067000D03*
X0152459Y0077000D03*
X0152459Y0087000D03*
X0152459Y0097000D03*
X0152459Y0107000D03*
X0152459Y0117000D03*
X0152459Y0127000D03*
X0152459Y0137000D03*
X0152459Y0147000D03*
X0152459Y0157000D03*
X0152459Y0167000D03*
X0152459Y0177000D03*
X0152459Y0187000D03*
X0152459Y0197000D03*
X0152459Y0207000D03*
X0152459Y0217000D03*
X0152459Y0227000D03*
X0152459Y0237000D03*
X0152459Y0247000D03*
X0152459Y0257000D03*
X0152459Y0267000D03*
X0152459Y0277000D03*
X0172459Y0277000D03*
X0172459Y0267000D03*
X0172459Y0257000D03*
X0172459Y0247000D03*
X0172459Y0237000D03*
X0172459Y0227000D03*
X0172459Y0217000D03*
X0172459Y0207000D03*
X0172459Y0197000D03*
X0172459Y0187000D03*
X0172459Y0177000D03*
X0172459Y0167000D03*
X0172459Y0157000D03*
X0172459Y0147000D03*
X0172459Y0137000D03*
X0172459Y0127000D03*
X0172459Y0117000D03*
X0172459Y0107000D03*
X0172459Y0097000D03*
X0172459Y0087000D03*
X0172459Y0077000D03*
X0172459Y0067000D03*
X0172459Y0057000D03*
X0172459Y0047000D03*
X0172459Y0037000D03*
M02*
